<?xml version="1.0" encoding="UTF-8"?>
<svg xmlns="http://www.w3.org/2000/svg" version="1.1" viewBox="0 0 731 565.5">
  <!-- Generator: Adobe Illustrator 28.7.4, SVG Export Plug-In . SVG Version: 1.2.0 Build 166)  -->
  <g>
    <g id="Capa_1">
      <path d="M415.5,248.4c-2.8,3.2-5.7,6-8.3,8.6-6.8,6.8-15.1,14.3-26.5,17.7-1.9.6-3.6.8-4.8-.5-.8-.9-.6-1.7,0-3.2l.3-.8c.8-2.2,1.7-4.4,2.7-6.6v-.3c1.8-3.9,3.4-7.9,4.5-12.1,1-3.8.3-7.4-2-10-2.5-2.9-6.5-4.2-11.1-3.6-4.7.7-9.5,2-14.8,4.2-4.5,1.9-8.8,3.8-12.4,5.4-1.4.6-2.6,1.4-3.9,2.3-1,.7-1.9,1.4-3,1.9-.8.4-2.8,1.2-4.1,1.2s-.6,0-.7-.2,0-.6,0-1l6.6-17c.1-.3.3-.8.6-1.4,1.2-2.5,3.2-6.8,1.7-9.9-.5-1-1.3-1.8-2.3-2.3-.7-.3-1.3-.5-1.9-.5-1.9,0-2.9,1.6-3.6,2.7l-.3.5c-2.6,3.9-4.8,8.1-6.7,12.5-.8.6-1.5,1.3-2.2,1.9-.5.4-.9.9-1.4,1.3-2.9,2.5-5.7,4.6-8.6,6.6-6.5,4.4-12.8,7.5-19.3,9.3-4.2,1.2-7.7,2-11.5,2s-4.5-.3-6.7-1c-2.6-.7-4.5-1.9-5.6-3.5-.8-1.1-1.1-2.4-.8-3.7l.3-1.3c1.2-5.9,2.3-11,9.6-12.1,12.1-1.8,20.2-5.7,25.6-12.4,1.9-2.3,5-6.1,1.2-11.3-2.8-3.9-7-5.4-12-4.2-15.3,4.1-25.7,12.2-31.2,24.2-.7.1-1.4.3-1.9.5l-5.3,1.7c-5.9,1.9-12,3.9-17.6,6.5-8.6,3.9-17,8.1-25.8,12.5l-2.9,1.4c-2.4,1.2-4.9,2.5-7.5,3.7,11.9-29.9,24.2-55.8,37.6-79.3l.6-1.1c4.8-8.4,9.7-17.1,17-23.7.3-.3.6-.6.9-1,1.3-1.4,1.9-1.9,3.3-.9,1.6,1.1,1.4,2.4,1.1,4.6,0,.4-.1.8-.2,1.2-.6,6.4-2.9,12.1-5.2,17.5l-.4,1.1c-2,4.8-4,9.9-6.2,15.7-.7,1.8-.5,4.3,2,6,1.5,1,3.3.4,4.5-.3,9.6-5.3,17-34.3,12-46.3-2.4-5.6-5.7-6.8-8.1-6.8s-3,.4-4.7,1.3c-4.6,2.5-7.7,6.4-10.1,9.9-16.3,23.6-30.1,49.8-42.3,80.2-7.2,17.9-15.9,36-35.9,44.3-.5.2-.9.5-1.4,1-.3.2-.6.4-.9.7-1.2.8-3.2,2.1-2.1,4.8,1.2,3,3.5,3,5.6,3.1.4,0,.8,0,1.3,0,4.1.6,6.6,1.6,7.9,3.3.8,1,1.6,2.8.2,7l-4.6,13.5c-3.7,10.9-7.3,21.7-11,32.9-.9,2.7-2.1,6.5,2.1,10,1.7,1.4,3.3,2,4.9,2s4.1-1.1,5.4-1.9c18.1-10.6,24.5-37.9,14.3-60.9l-.3-.6c-.2-.5-.7-1.4-.7-1.6,1.4-3,2.4-6.3,3.3-9.7,1.9-6.8,4-13.8,10.3-17.7,20.8-12.7,39.3-21.4,58-27.2-.2.8-.4,1.5-.5,2.3-1.1,5.5.1,10.7,3.6,14.5,3.6,4,9.2,6.3,15.8,6.3h.9c17.5,0,30.3-8.4,42.3-17.5-.6,2-1.1,4-1.6,6.1l-.2.7c-.5,2.3-1.2,5.2,2.1,8.1,1.5,1.3,3,1.9,4.5,1.9s3.2-.8,4.3-1.4l.7-.4c2.1-1.1,4.2-2.2,6.3-3.4l1.2-.7c5.5-3.1,11.1-6.2,17.3-8.4,4.7-1.6,9.7-2.8,14.5-4,1.8-.4,2.9-.1,3.9.8.9.9.7,1.4.1,2.5l-.3.6c-.6,1.4-1.4,2.7-2.3,4.3l-1.8,3c-2.7,4.5-5.5,9.1-5.5,15.3,0,3.6,1,6.5,3,8.4,1.9,1.9,4.7,2.8,8.3,2.8h.3c3.4,0,6.1-.7,8.3-1.9,11-6.2,20.3-13.2,28.4-20.9.4,2.6,1.4,4.8,3.1,6.5,2.2,2.1,5.2,3.2,9,3.2,8.8,0,15-4.3,20.9-8.4l.8-.6c5.4-3.7,10.7-7.9,15.3-11.6.1-.1.3-.3.6-.6l.2-.2c1.6-1.6,3.5-3.3,4.8-3.4.2,0,.4.2.6.5.2.3-.3,1.3-.7,2-.2.4-.4.7-.5,1-5.5,16.7-11.7,39.1-10.8,64.4.1,3.6.5,7.4,2.4,11.2,1.1,2.3,3,3.6,5.2,3.6s1.4-.1,2.1-.4c1.9-.8,2.2-2.1,2.3-2.8,0-1.1-.5-2.3-1.8-3.8-2.9-3.2-2.9-6.5-2.9-9.8,0-.8,0-1.6,0-2.4-1.4-27.1,7.7-50.9,14.9-70.1,1.5-4,4-7.5,7.5-10.7,15.9-14.3,27.9-26.6,37.8-38.7,9-10.9,17.2-22,19.6-37.1h0c.6-3.8,1.4-8.8-3.7-12.2-1.5-1-3.1-1.5-4.6-1.5-2.9,0-5.4,1.7-7.5,3.2-9.9,7-15.9,17.3-21.3,27.2-7.2,13.3-14.3,26.7-21.4,40.2l-7.6,14.4c-6.9-13.6-16.6-18-28.1-12.6-16.6,7.8-28.2,20.9-34.6,38.8h0ZM427.8,263.8c-3,0-5-.6-6-1.7-.6-.7-1.3-2-.6-5.3,1.9-8.3,7-14.4,12.6-20.4,6.1-6.6,13-13.4,22.7-16.7,1.7-.6,3-.8,4.2-.8,2.3,0,4.2,1.2,5.5,3.5.5.9,1.1,1.7,1.7,2.6l1.4-.7h0l-1.2.9h0c3,4.2,4.6,7,.9,9.9-3.7,2.9-7.2,6-10.6,9-5.4,4.8-11,9.8-17.4,13.9-3.2,2.1-8,4.9-13.2,5.7h0ZM493.9,209.1l.2-.5c5.2-10.9,10.6-22.1,16.9-32.7,4-6.7,8-12.5,12.2-17.8l1.7-2.1c2.4-3.1,4.9-6.2,7.7-9,1.2-1.2,2.6-1.9,3.7-1.9s.4,0,.6,0c.6.2,1.1.5,1.3,1.1h0c1.8,3.2-2.6,13.3-7.7,21.8-3.3,5.4-7.2,10.8-11.9,16.4-3.9,4.6-8.3,9.2-14,14.8-2.4,2.4-4.9,4.8-7.4,7.1-.7.6-1.5,1.2-2.3,1.9-.3.3-.7.5-1,.8h0ZM284.3,226.4c4.2-4.4,8.8-6.8,14.1-8.6-3.5,4.7-8.1,7-14.1,8.6ZM174.2,338.2c2.5-11.4,6.1-21,9.9-31.3,1.4,11.5-2.2,22.8-9.9,31.3ZM186.3,277.5c-1.6,7.2-2.5,10.1-4,10.1s-3.2-1.1-6.1-2.9l10.1-7.2h0Z"/>
      <path d="M541.6,184.2c-1.1,1.5-1.4,3.6-.7,6.2.8,3.4,2.9,5.1,6.1,5.1s.6,0,.9,0c7-.7,8.2-4.6,8-7.7v-.3c-1.3-4.3-3.9-6.3-8.1-6.1-3,.2-5.1,1.1-6.3,2.7h0Z"/>
      <path d="M575.4,242.1c.2-.2.6-.4.9-.7,1.6-1.1,3.7-2.6,3.7-4.8,0-1.5-.6-2.4-1.1-2.8-2.1-1.7-6.3.9-19.2,12.2-1.6,1.4-2.8,2.4-3.3,2.8-8.7,6.4-16.6,10.3-24.6,12.2l-1,.2c-4.2,1.1-9,2.3-12.7-1.4-2.6-2.6-1.7-5,.1-8.5.4-.8.8-1.5,1-2.2,5.6-13.7,13.5-26.2,21.1-38.3l.4-.6c.1-.2.3-.5.5-.7,1.1-1.5,3.3-4.6-.7-7.8-4.1-3.2-6.7-.2-7.9,1.2l-.4.5c-11.9,13-20.2,28.2-24.7,45-1.9,7-.4,12.5,4.5,16.9,3.5,3.1,7,4,10.4,4s4.8-.5,7-1c11-2.8,21.6-7.8,32.5-15.5,4.1-2.9,8.3-6.2,13.6-10.6h0Z"/>
      <path d="M357.7,376.1c0,0-.8.3-3.6.3h-3.1v5.1h38.1l2.2-20.3-4.7-.2-.8,5.7c-.1,1-.5,2.2-1,3.7-.5,1.4-1.1,2.4-1.8,3.1-.7.7-1.9,1.4-3.3,2s-3.2.9-5.3.9h-5.5c-1,0-1.5,0-1.7-.1,0-.2,0-.5,0-1.1v-36c0-.6,0-1,0-1.1.1,0,.3-.1.7-.3.6-.2,1.7-.3,4.1-.3h3.8v-5.3h-1.6c-1.6.3-5.4.3-11.2.3s-8.6,0-10.1-.2h-1.6c0-.1,0,5.1,0,5.1h3.1c2.9,0,3.6.3,3.6.3,0,0,.2.3.2,1.3v35.6c0,1-.2,1.3-.2,1.3h0s0,0,0,0Z"/>
      <path d="M433.9,330.9c-6.5,0-12.2,2.6-16.9,7.7-4.6,5.1-7,11.3-7,18.6s2.4,13.4,7.1,18.3c4.7,5,10.4,7.5,16.9,7.5s12.3-2.5,17-7.6c4.7-5,7-11.1,7-18.3s-2.4-13.5-7-18.6c-4.7-5.1-10.4-7.7-17-7.7h0ZM421.3,366.8c-.9-3-1.4-6.6-1.4-10.6s.5-7.4,1.5-10.3c1-2.8,2.2-4.9,3.7-6.3,1.5-1.4,3.1-2.5,4.5-3.1,1.4-.6,2.9-.9,4.3-.9s2.3.2,3.4.5c1.2.4,2.4,1,3.7,2,1.3.9,2.4,2.2,3.4,3.6,1,1.4,1.8,3.4,2.5,5.9.7,2.5,1,5.4,1,8.5s-.5,7.7-1.4,10.8c-.9,3-2.1,5.3-3.6,6.8-1.5,1.6-3,2.8-4.5,3.5-3,1.4-6,1.4-9,0-1.5-.7-3-1.9-4.5-3.5-1.4-1.6-2.6-3.9-3.6-6.8h0Z"/>
      <path d="M515.6,332.6c-.5,0-3.2,0-8.1-.2h-1.6s0,5.1,0,5.1h1.5c1.5,0,2.8.1,3.7.4.7.2,1.2.5,1.3.7.4.7.5,1,.5,1.1,0,.2,0,.6,0,1.3v23.4c0,4.2-1.1,7.4-3.5,9.9-2.3,2.4-4.9,3.6-8,3.6s-1.8-.1-2.7-.4c-.9-.3-2-.9-3.1-1.7-1.1-.8-2-2-2.7-3.8-.8-1.9-1.1-4.3-1.1-7.1v-25.7c0-1,.2-1.3.2-1.3,0,0,.8-.3,3.6-.3h3.1v-5.3h-1.6c-1.5.3-4.8.3-9.8.3s-8.3,0-9.9-.2h-1.6c0-.1,0,5.1,0,5.1h3.1c2.9,0,3.6.3,3.6.3,0,0,.2.3.2,1.3v25.4c0,5.1,1.8,9.5,5.5,13.1,3.6,3.5,8,5.3,13,5.3s7.8-1.5,10.8-4.5c3-2.9,4.8-6.6,5.4-10.8.1-1,.2-2.6.2-4.9v-21.6c0-.8,0-1.2.1-1.5,0-.2.1-.5.6-1.2.2-.3.6-.5,1.3-.7.9-.3,2.2-.4,3.7-.4h1.5v-5.2h-1.6c-4.9.2-7.6.2-8,.2h0s0,0,0,0Z"/>
      <path d="M581.7,332.6c-.5,0-3.2,0-7.9-.2h-1.6s0,5.1,0,5.1h1.5c1.5,0,2.7.1,3.6.4.7.2,1.1.5,1.3.7.4.6.5.9.5,1.1,0,.2,0,.6,0,1.3v23.9l-21.1-31c-.5-.6-.9-1-1.3-1.2-.4-.2-1-.3-1.9-.3h-13v5.1h3.5c.9,0,2,0,3.2.1.1,0,.2,0,.3,0h0v35.2c0,.7,0,1.1-.1,1.3,0,.1-.1.5-.5,1.1-.1.2-.4.5-1.3.7-.9.3-2.1.4-3.6.4h-1.5v5.2h1.6c4.7-.2,7.3-.2,7.9-.2s3.2,0,7.9.2h1.6s0-5.1,0-5.1h-1.5c-1.5,0-2.7-.1-3.5-.4-.7-.2-1.1-.5-1.3-.8-.4-.6-.5-.9-.5-1,0-.2,0-.6,0-1.3v-30.3l25.5,37.5c.5.6,1.3,1.5,2.4,1.5s2.1-.9,2.2-1.3c.2-.4.2-1,.2-2v-37.3c0-.7,0-1,.1-1.2,0-.1.1-.5.5-1.1.2-.3.6-.5,1.2-.7.9-.3,2.1-.4,3.6-.4h1.5v-5.2h-1.6c-4.7.2-7.3.2-7.9.2h0,0Z"/>
      <path d="M648.6,360.3c-5.7,0-9.3,0-10.9-.2h-1.6c0-.1,0,5.1,0,5.1h3.7c3.7,0,4.4.4,4.5.4,0,0,.3.4.3,1.4v4.3c0,1.4-.3,2.6-1,3.5-.7.9-1.5,1.6-2.6,2-1.3.5-2.3.8-3.1.9-2,.4-3.6.3-5.5-.1-1.1-.2-2.5-.8-4.1-1.7-1.6-.8-3-2-4.3-3.4-1.2-1.3-2.3-3.4-3.2-6.1-.9-2.7-1.4-5.9-1.4-9.5s.5-6.9,1.4-9.6c.9-2.7,2-4.7,3.2-6.1,1.2-1.4,2.6-2.5,4.2-3.3,1.6-.8,3-1.4,4-1.6,4.8-1,8.6.2,11.8,3.6,2.5,2.7,4.2,6.3,4.8,10.9.1.7.3,1.1.4,1.5.4.6,1,.9,2,.9,1.4,0,2-.6,2.2-1.2.1-.3.2-.8.2-1.9v-16c0-1.1,0-1.4-.1-1.7-.2-.7-.8-1.4-2-1.4s-1.6.5-2.3,1.5l-2.5,3.5c-.3-.3-.6-.5-.8-.7-.6-.5-1.5-1.1-2.6-1.9-1.2-.8-2.6-1.4-4.1-1.8-1.5-.4-3.1-.6-4.8-.6-6.7,0-12.6,2.5-17.6,7.6-4.9,5-7.4,11.2-7.4,18.5s2.5,13.5,7.4,18.5c4.9,5,10.9,7.6,17.8,7.6s5.6-.5,8.1-1.6c1.9-.8,3.4-1.8,4.6-3.2.3.4.7.8,1.2,1.2,1.5,1.4,2.3,1.9,3.1,1.9s2-.4,2-3.1v-11.7c0-.8,0-1.2,0-1.2.2,0,1-.2,3.1-.2h1.5v-5.2h-1.6c-4.9.2-7.5.3-8,.3h0s0,0,0,0Z"/>
      <path d="M716.3,361l-1.2,6.1c-.2,1.1-.6,2.3-1,3.6-.4,1.1-.9,2-1.4,2.5-.6.6-1.3,1.2-2.2,1.8-.8.5-1.9.9-3.1,1.1-1.3.2-2.9.4-4.8.4h-9c-1,0-1.5,0-1.7-.1,0-.2,0-.5,0-1.1v-16.5h4.6c3.5,0,4.5.8,4.8,1.1.4.5,1,1.8,1,5.3v1.5h4.7v-20.9h-4.7v1.5c0,3.6-.6,4.9-1,5.3-.3.3-1.2,1.1-4.8,1.1h-4.6v-14.7c0-.6,0-.9,0-1.1.3,0,.8-.1,1.7-.1h8.7c2.4,0,4.4.2,5.8.6,1.3.4,2.3,1,3.1,1.9.8,1,1.4,2.1,1.8,3.4.4,1.4.7,3.4,1,5.9l.2,1.3h4.7l-2.3-18.2h-40.9v5.1h3.1c2.9,0,3.6.3,3.6.3,0,0,.2.3.2,1.3v35.4c0,1-.2,1.3-.2,1.3,0,0-.8.3-3.6.3h-3.1v5.1h41.8l3.3-20.2-4.7-.4h0Z"/>
      <path d="M510.1,415l-.7-.4-.7,1.7c-.7.6-1.4,1.2-2.1,1.9-2,1.8-4.1,3.6-5.6,5.9h0c-38.2,58.9-91.1,97.7-157.1,115.1-21.7,5.7-45.4,7.2-72.4,4.6l-8.6-.8c-10.1-1-20.6-2-30.8-3.2-.4,0-2-.6-4.4-1.3,0,0,.2,0,.2,0l3-1.1-12.6-7.3,7.7,7.9s0,0,0,0c-5.9-1.9-15.2-5.1-23.5-7.9l8.1-.4-6-2.6c-3.7-1.6-7.4-3.2-11.1-4.7-8.9-3.8-18.1-7.7-26.9-11.7-3.1-1.4-6.1-3.3-8.9-5.1-2-1.3-4.1-2.6-6.3-3.8-29.9-16.4-71.1-69.6-71.5-70.1-7.7-10.6-14.6-22.3-20.5-35-8.9-19.2-18.6-42.2-23.3-67.3-3.2-23.6-1.8-47.4-.3-65.6,1.2-13.9,3.6-27.3,7.2-39.8.2-.6,20.9-64.7,43.4-90.5,1.6-1.9,3.1-3.8,4.6-5.7,2.1-2.7,4.2-5.5,6.6-7.9,7-6.9,14.3-13.7,21.3-20.3,2.9-2.7,5.9-5.5,8.8-8.2l4.8-4.5-7.7,2.4c6.9-5.6,14.5-11.7,19.3-15.5l-4.8,10.3,7.5-8.9h-.1c0-.1.1,0,.1,0v-.3c.1,0-1-.5-1-.5l-.3-1.6h-.1c1.9-1.5,3.3-2.5,3.6-2.7,9.2-4.7,18.8-9.3,28-13.7l7.7-3.7c24.4-11.7,47.2-18.4,69.5-20.5,68-6.3,130.9,12,187,54.2,2.2,1.6,4.8,2.6,7.3,3.6.8.3,1.7.7,2.5,1l1.3,1.4.5-.6,4.9,2.1-3.5-3.8.6-.7-2-.8c-.4-.5-.8-1-1.3-1.4-1.3-1.6-2.7-3.2-4.4-4.4-3.2-2.3-6.4-4.7-9.7-7.1-21.9-16.1-44.6-32.7-72.3-39.9-5.2-1.4-10.5-2.9-15.6-4.4-13.1-3.8-26.6-7.7-40.2-9.1-25.5-2.6-50.4-1.9-74.4,2,2.1-.8,4.2-1.6,6.3-2.4l7.3-2.8-3.5-1.5c-2.7-1.1-5.1-1.3-7.3-.6-3.6,1.3-7.3,2.5-11,3.7-10.7,3.6-21.7,7.3-32.2,11.7-4.4,1.9-8.7,4-12.8,6.3-15.1,5.9-29.8,13.1-44,21.9-16.9,10.3-32.3,22.4-46.3,36.2l.2-.3-3.7.7c-2.8.5-5,1.7-6.4,3.6-2.3,3.1-4.7,6.1-7.1,9.2-6.9,8.9-14,18.1-20.3,27.6-4.5,6.8-8.1,14.1-11.7,21.3-1.6,3.2-3.2,6.4-4.9,9.6l-2.1,6.3c-6.2,12.2-11.2,25.8-15.4,41.4h-.5c0-.1-.4,1.3-.4,1.3-6.7,23.4-9.8,47.9-9.5,72.8.2,15.3,1.6,30.1,4.2,43.8.5,2.5,1,5.1,1.5,7.6,2.3,12.8,5.8,25.9,10.4,39.1l.3.8c2.8,8.2,6,16,9.6,23.4,6.8,14.5,14.8,28.3,24,41l1,1c9.6,13.7,19.2,24.9,29.4,34.4,41.1,38,85,61.4,134.4,71.3,18.4,3.7,36.7,5.6,54.8,5.6,40.9,0,81-9.5,119.6-28.3,12.3-6,23.7-14.3,34.7-22.4,4.3-3.2,8.8-6.4,13.2-9.5,23.5-16.2,39.1-39.7,54.2-62.3,2.2-3.3,4.4-6.6,6.7-9.9,1.2-1.8,1.9-3.7,2.7-5.7.2-.6.4-1.2.7-1.8l1.6-1.5-.8-.5,2-4.8-3.9,3.7h0s0,0,0,0ZM227.5,535.3c.3,0,.6,0,.8.3l-.9.9-.4-1.1c.2,0,.3,0,.5,0h0Z"/>
      <polygon points="181.2 35.8 178.6 31.7 145.6 47.3 147.5 51.3 181.2 35.8"/>
      <path d="M123.7,65.6c-7.2.1-11.8,3.8-13.8,10.9l-1.2,4.5,19.5-15.4h-4.5c0,0,0,0,0,0Z"/>
      <polygon points="356.8 13 320.6 7.7 320 12.2 356.6 17.9 356.8 13"/>
      <path d="M292.3,10.8c-6-3.9-11.9-3.4-17.5,1.4l-3.5,3,24.8-2-3.7-2.4h0Z"/>
    </g>
  </g>
</svg>