<?xml version="1.0" encoding="UTF-8"?>
<svg id="Capa_1" xmlns="http://www.w3.org/2000/svg" viewBox="0 0 1359.29 106.91">
  <defs>
    <style>
      .cls-1 {
        fill: #cfb361;
      }
    </style>
  </defs>
  <path class="cls-1" d="M0,105.21v-7.08h16.29V9.58H0V2.51h91.35l4.65,36.42h-7.08c-.49-4.04-1.04-7.34-1.66-9.9-.61-2.56-1.57-5.21-2.88-7.95-1.3-2.73-2.99-4.85-5.05-6.36-2.06-1.5-4.81-2.73-8.22-3.7-3.42-.96-7.48-1.44-12.2-1.44h-21.16v40.7h7.52c6.73,0,11.06-1.36,12.98-4.09,1.92-2.73,2.88-7.26,2.88-13.6h7.15v42.4h-7.15c0-6.34-.96-10.86-2.88-13.57-1.92-2.7-6.24-4.06-12.98-4.06h-7.52v40.77h20.35v7.08c-4.42-.29-14.57-.44-30.45-.44-14.6,0-23.81.15-27.65.44Z"/>
  <path class="cls-1" d="M109.12,105.21v-7.08h16.29V9.58h-16.29V2.51h93.79l4.65,36.42h-7.08c-.49-4.14-1.07-7.55-1.73-10.24-.66-2.69-1.7-5.33-3.1-7.95-1.4-2.61-3.16-4.68-5.27-6.21-2.11-1.53-4.89-2.73-8.33-3.62-3.44-.89-7.52-1.33-12.24-1.33h-22.93v38.86h8.33c6.73,0,11.08-1.36,13.05-4.09,1.97-2.73,2.95-7.26,2.95-13.6h7.08v42.47h-7.08c0-6.34-.98-10.88-2.95-13.6-1.97-2.73-6.32-4.09-13.05-4.09h-8.33v42.62h22.92c4.52,0,8.53-.33,12.02-1,3.49-.66,6.44-1.77,8.85-3.32,2.41-1.55,4.45-3.21,6.12-4.98s3.06-4.09,4.17-6.97,1.91-5.63,2.42-8.25c.51-2.62,1.14-5.88,1.9-9.78h7.15l-6.99,41.36h-96.3Z"/>
  <path class="cls-1" d="M223.11,105.21v-7.08h3.76c3,0,5.73-.15,8.18-.44,2.11-.2,3.37-.48,3.76-.85.39-.37.59-1.41.59-3.13V8.7h-16.29V1.62h34.58c1.52,0,2.53.1,3.02.29.49.2,1.13.76,1.92,1.7l60.16,70.63V13.12c0-1.72-.21-2.75-.62-3.1-.42-.34-1.72-.64-3.93-.88-2.69-.29-5.33-.44-7.93-.44h-3.82V1.62c4.12.29,10.92.44,20.39.44s16.39-.15,20.16-.44v7.08h-3.74c-2.99,0-5.7.15-8.15.44-2.1.2-3.35.48-3.74.85-.39.37-.59,1.41-.59,3.13v87.22c0,2.02-.2,3.33-.6,3.94-.4.62-1.56.92-3.5.92-1.23,0-2.02-.1-2.36-.29-.34-.2-.91-.76-1.7-1.7L247.44,14.75v78.97c0,1.72.2,2.76.59,3.13.39.37,1.7.65,3.91.85,2.7.29,5.38.44,8.04.44h3.76v7.08c-4.13-.29-10.94-.44-20.42-.44s-16.37.15-20.2.44Z"/>
  <path class="cls-1" d="M358.99,105.21v-7.08h16.29V8.7h-16.29V1.62h64.96c15.29,0,27.86,4.73,37.71,14.19,9.85,9.46,14.78,22.3,14.78,38.52s-4.9,28.26-14.71,37.31c-9.81,9.04-22.35,13.57-37.64,13.57h-65.1ZM395.86,98.14h22.05c13.91,0,23.81-4.23,29.71-12.68,2.41-3.44,4.12-7.47,5.12-12.09,1.01-4.62,1.51-11.01,1.51-19.17,0-14.99-2.16-25.66-6.49-32-6.24-8.95-16.2-13.44-29.86-13.49h-22.05v89.44Z"/>
  <path class="cls-1" d="M491.12,105.21v-7.08h17.18V8.7h-17.18V1.62c4.13.29,13.43.44,27.91.44s23.78-.15,27.91-.44v7.08h-17.18v89.44h17.18v7.08c-4.13-.29-13.43-.44-27.91-.44s-23.78.15-27.91.44Z"/>
  <path class="cls-1" d="M615.58,105.21v-7.08h16.29V8.7h-16.29V1.62c3.83.29,13.05.44,27.65.44,15.93,0,26.08-.15,30.45-.44v7.08h-20.35v89.44h15.56c3.73,0,7.14-.48,10.21-1.44,3.07-.96,5.58-2.11,7.52-3.47,1.94-1.35,3.72-3.17,5.35-5.46,1.62-2.29,2.84-4.28,3.65-5.97.81-1.7,1.54-3.91,2.18-6.64.64-2.73,1.03-4.74,1.18-6.05.15-1.3.4-3.06.77-5.27h7.49l-4.99,41.36h-86.65Z"/>
  <path class="cls-1" d="M723.66,54.08c0-16.13,5.01-29.18,15.04-39.14s23.54-14.94,40.55-14.94,30.12,4.93,40.22,14.79c10.1,9.86,15.15,22.96,15.15,39.29s-4.98,28.39-14.93,38.17c-9.95,9.78-23.48,14.66-40.59,14.66s-30.38-4.85-40.4-14.55c-10.03-9.7-15.04-22.46-15.04-38.28ZM746.74,51.8c0,14.29,2.06,25.32,6.19,33.08,2.9,5.35,6.75,9.31,11.54,11.86,4.79,2.55,9.67,3.83,14.64,3.83,11.06,0,19.56-4.79,25.51-14.37,4.62-7.66,6.93-19.13,6.93-34.41,0-13.9-2.11-24.41-6.34-31.53-2.9-4.71-6.7-8.26-11.39-10.64-4.69-2.38-9.6-3.57-14.71-3.57-4.82,0-9.5,1.09-14.05,3.28-4.55,2.19-8.27,5.44-11.17,9.76-4.77,7.32-7.15,18.22-7.15,32.71Z"/>
  <path class="cls-1" d="M850.19,8.7V1.62c3.83.29,12.84.44,27.02.44s23.19-.15,27.02-.44v7.08h-16.29v62.87c0,2.51.07,4.63.22,6.35.15,1.72.7,4.1,1.66,7.12s2.3,5.5,4.02,7.42c1.72,1.92,4.36,3.63,7.93,5.13s7.85,2.25,12.87,2.25c4.32,0,8.38-.53,12.16-1.59s7.26-2.69,10.43-4.91c3.17-2.21,5.69-5.31,7.56-9.3,1.87-3.98,2.8-8.63,2.8-13.95V13.13c0-1.72-.21-2.75-.62-3.1-.42-.34-1.72-.64-3.93-.89-2.69-.29-5.33-.44-7.93-.44h-3.74V1.62c4.12.29,10.89.44,20.31.44s16.41-.15,20.24-.44v7.08h-3.82c-2.98,0-5.68.15-8.07.44-2.11.2-3.37.48-3.78.85s-.62,1.41-.62,3.14v57.56c0,10.06-3.55,18.62-10.64,25.66-7.09,7.04-17.41,10.57-30.95,10.57-14.99,0-26.67-3.45-35.02-10.36-8.36-6.91-12.53-15.64-12.53-26.21V8.7h-16.29Z"/>
  <path class="cls-1" d="M983.64,105.21v-7.08h3.76c3,0,5.73-.15,8.18-.44,2.11-.2,3.37-.48,3.76-.85.39-.37.59-1.41.59-3.13V8.7h-16.29V1.62h34.58c1.52,0,2.53.1,3.02.29.49.2,1.13.76,1.92,1.7l60.16,70.63V13.12c0-1.72-.21-2.75-.62-3.1-.42-.34-1.72-.64-3.93-.88-2.69-.29-5.33-.44-7.93-.44h-3.82V1.62c4.12.29,10.92.44,20.39.44s16.39-.15,20.17-.44v7.08h-3.74c-2.99,0-5.7.15-8.15.44-2.1.2-3.35.48-3.74.85-.39.37-.59,1.41-.59,3.13v87.22c0,2.02-.2,3.33-.6,3.94-.4.62-1.56.92-3.5.92-1.23,0-2.02-.1-2.36-.29-.34-.2-.91-.76-1.7-1.7l-75.24-88.48v78.97c0,1.72.2,2.76.59,3.13.39.37,1.7.65,3.91.85,2.7.29,5.38.44,8.04.44h3.76v7.08c-4.13-.29-10.94-.44-20.42-.44s-16.37.15-20.2.44Z"/>
  <path class="cls-1" d="M1123.28,53.45c0-15.83,5.52-28.69,16.55-38.6,11.03-9.9,25.7-14.86,43.98-14.86,11.18,0,21.13,3.42,29.85,10.25l9.94-8.92c.98-.88,1.94-1.33,2.87-1.33,1.21,0,1.95.27,2.24.81.29.54.43,1.67.43,3.39v32.44c0,2.02-.2,3.23-.61,3.65-.41.42-1.56.63-3.44.63-1.69,0-2.73-.16-3.11-.48-.39-.32-.68-1.22-.87-2.69-1.64-9.34-5.64-16.79-12.01-22.34-6.37-5.55-13.69-8.33-21.98-8.33-7.03,0-13.36,1.21-18.99,3.61-5.63,2.41-10.02,5.58-13.16,9.51-5.75,7.57-8.63,18.58-8.63,33.03s2.83,25.58,8.48,32.86c3.54,4.53,8.29,7.95,14.27,10.26,5.97,2.31,12.35,3.47,19.13,3.47,5.46,0,9.98-1.06,13.57-3.18,3.93-2.32,5.9-5.89,5.9-10.72v-15.3h-21.75v-7.08c5.47.29,15.83.44,31.07.44,12.63,0,20.7-.15,24.23-.44v7.08h-12.09v30.38c0,2.8-.7,4.2-2.1,4.2-.69,0-2.8-.88-6.34-2.65-3.54-1.77-6.36-3.56-8.47-5.38-5.22,6.44-14.6,9.68-28.14,9.73-18.92,0-33.79-5.04-44.61-15.11-10.81-10.08-16.22-22.86-16.22-38.34Z"/>
  <path class="cls-1" d="M1256,105.21v-7.08h16.29V9.58h-16.29V2.51h93.79l4.64,36.42h-7.08c-.49-4.14-1.07-7.55-1.73-10.24-.66-2.69-1.7-5.33-3.1-7.95-1.4-2.61-3.16-4.68-5.27-6.21-2.11-1.53-4.89-2.73-8.33-3.62-3.44-.89-7.52-1.33-12.24-1.33h-22.93v38.86h8.33c6.73,0,11.08-1.36,13.05-4.09,1.97-2.73,2.95-7.26,2.95-13.6h7.08v42.47h-7.08c0-6.34-.98-10.88-2.95-13.6-1.97-2.73-6.32-4.09-13.05-4.09h-8.33v42.62h22.92c4.52,0,8.53-.33,12.02-1,3.49-.66,6.44-1.77,8.84-3.32,2.41-1.55,4.45-3.21,6.12-4.98,1.67-1.77,3.06-4.09,4.16-6.97,1.11-2.88,1.91-5.63,2.42-8.25s1.14-5.88,1.9-9.78h7.15l-6.99,41.36h-96.3Z"/>
</svg>