<?xml version="1.0" encoding="UTF-8"?>
<svg xmlns="http://www.w3.org/2000/svg" version="1.1" viewBox="0 0 763 349">
  <defs>
    <style>
      .cls-1 {
        fill: #cfb361;
      }
    </style>
  </defs>
  <!-- Generator: Adobe Illustrator 28.7.4, SVG Export Plug-In . SVG Version: 1.2.0 Build 166)  -->
  <g>
    <g id="Capa_1">
      <path class="cls-1" d="M347.9,158.2c-3.7,4.1-7.5,8-11,11.4-9,9-20,19-35.1,23.5-2.6.8-4.8,1-6.4-.6s-.8-2.2,0-4.3l.5-1c1-3,2.3-5.8,3.5-8.8v-.4c2.3-5.2,4.5-10.4,6.1-16.1,1.3-5,.4-9.8-2.7-13.3-3.4-3.9-8.5-5.5-14.7-4.8-6.2.9-12.6,2.7-19.6,5.5-5.9,2.5-11.6,5-16.4,7.2-1.8.9-3.4,1.9-5.2,3.1-1.3.9-2.6,1.8-3.9,2.5s-3.7,1.5-5.4,1.5-.8,0-1-.3c-.3-.3,0-.8,0-1.3l8.8-22.6c.1-.4.4-1,.8-1.8,1.5-3.4,4.3-9,2.3-13.2-.6-1.3-1.7-2.3-3.1-3-.9-.5-1.7-.6-2.6-.6-2.6,0-3.9,2.2-4.8,3.6l-.4.8c-3.5,5.2-6.4,10.7-8.9,16.6-1,.8-2.1,1.7-3,2.6-.6.6-1.2,1.2-1.8,1.7-3.9,3.4-7.6,6.2-11.4,8.8-8.6,5.9-17,9.9-25.5,12.3-5.5,1.5-10.2,2.7-15.3,2.7s-5.9-.4-8.9-1.3c-3.5-1-5.9-2.6-7.4-4.6-1-1.4-1.4-3.2-1-4.9l.4-1.7c1.7-7.9,3.1-14.6,12.8-16.1,16-2.5,26.8-7.6,34.1-16.4,2.5-3,6.6-8,1.5-15-3.7-5.2-9.2-7.2-15.9-5.5-20.3,5.4-34.2,16.3-41.4,32.1-.9.3-1.8.5-2.5.6l-7,2.3c-7.9,2.6-15.9,5.2-23.3,8.5-11.4,5.2-22.4,10.7-34.3,16.6l-3.9,1.9c-3.2,1.7-6.6,3.2-9.9,4.9,15.7-39.6,32-74,49.8-105.3l.8-1.4c6.3-11.2,12.9-22.7,22.4-31.5.4-.4.8-.8,1.3-1.3,1.7-1.9,2.6-2.5,4.4-1.2,2.1,1.4,1.9,3.1,1.4,6.1,0,.5-.1,1-.3,1.7-.8,8.5-3.9,16-7,23.2l-.6,1.4c-2.7,6.3-5.3,13.2-8.3,20.8-.9,2.3-.6,5.7,2.7,8,1.9,1.3,4.4.5,5.9-.4,12.6-7.1,22.6-45.5,15.9-61.4-3.1-7.5-7.6-9-10.7-9s-4,.6-6.2,1.8c-6.2,3.4-10.2,8.5-13.4,13-21.5,31.3-40,66-56.1,106.4-9.5,23.7-21,47.7-47.6,58.8-.6.3-1.2.8-1.9,1.3-.4.3-.8.6-1.2.9-1.5,1-4.3,2.8-2.8,6.4,1.5,3.9,4.6,4,7.5,4.1h1.7c5.4.8,8.8,2.1,10.4,4.4,1,1.3,2.1,3.7.3,9.3l-6.1,17.9c-4.9,14.4-9.7,28.8-14.6,43.6-1.2,3.6-2.8,8.5,2.8,13.3,2.2,1.8,4.4,2.7,6.6,2.7s5.4-1.4,7.2-2.6c24-14.1,32.5-50.2,19-80.7l-.4-.8c-.3-.6-.9-1.9-.9-2.2,1.9-4,3.1-8.4,4.4-12.8,2.6-9,5.3-18.3,13.7-23.5,27.6-16.9,52.1-28.4,76.9-36-.3,1-.5,2.1-.8,3.1-1.5,7.4.3,14.2,4.8,19.2,4.8,5.3,12.1,8.3,20.9,8.4h1.2c23.2,0,40.2-11.1,56-23.2-.8,2.7-1.5,5.3-2.1,8.1l-.3.9c-.8,3.1-1.5,7,2.7,10.7,2.1,1.8,4,2.6,6.1,2.6s4.3-1,5.8-1.9l.9-.5c2.8-1.4,5.5-3,8.3-4.5l1.7-.9c7.2-4.1,14.7-8.3,23-11.1,6.3-2.2,12.9-3.7,19.2-5.3,2.3-.5,3.9-.3,5.2,1,1.2,1.2.9,1.9.3,3.4l-.4.9c-.8,1.9-1.8,3.6-3.1,5.7l-2.3,4c-3.6,5.9-7.2,12-7.2,20.3s1.3,8.5,4,11.2c2.6,2.5,6.3,3.7,11,3.7h.4c4.5,0,8-.9,11-2.6,14.6-8.3,27-17.4,37.7-27.7.5,3.5,1.8,6.4,4.1,8.6,2.8,2.8,6.8,4.3,12,4.3,11.7,0,19.9-5.7,27.7-11.1l1-.8c7.1-4.9,14.2-10.4,20.4-15.3.1-.1.5-.4.8-.8l.3-.3c2.2-2.2,4.6-4.4,6.3-4.5.3,0,.5.3.8.6.3.4-.4,1.7-.9,2.6-.3.5-.5.9-.6,1.3-7.2,22.2-15.5,51.9-14.3,85.4.1,4.8.6,9.8,3.1,14.8,1.4,3,4,4.8,6.8,4.8s1.8-.1,2.7-.5c2.5-1,3-2.7,3-3.6,0-1.5-.6-3.1-2.5-5-3.9-4.3-3.9-8.6-3.9-13v-3.2c-1.9-36,10.2-67.5,19.9-92.9,2.1-5.3,5.3-9.9,9.9-14.2,21-19,37-35.3,50.2-51.3,11.9-14.4,22.8-29.2,25.9-49.1h0c.8-5,1.8-11.7-4.9-16.1-2.1-1.4-4.1-2.1-6.2-2.1-3.9,0-7.1,2.3-9.9,4.3-13.2,9.3-21.2,23-28.2,36.1-9.5,17.7-19,35.5-28.4,53.4l-10.1,19.1c-9.2-18.1-22.1-23.9-37.1-16.8-22.1,10.4-37.4,27.7-45.9,51.5h.3ZM364.2,178.6c-4,0-6.6-.8-8-2.3-.8-.9-1.8-2.6-.8-7,2.6-11,9.3-19.1,16.8-27.1,8.1-8.8,17.2-17.8,30.1-22.2,2.3-.8,4-1.2,5.5-1.2,3.1,0,5.5,1.5,7.4,4.6.6,1.2,1.4,2.3,2.3,3.5l1.8-.9h0l-1.7,1.2h0c4,5.5,6.2,9.3,1.3,13.2s-9.5,8-14.1,12c-7.2,6.4-14.6,13-23.1,18.4-4.3,2.7-10.7,6.4-17.5,7.6h0ZM452,106l.3-.6c7-14.4,14.1-29.4,22.4-43.3,5.3-8.9,10.6-16.6,16.3-23.6l2.2-2.8c3.2-4.1,6.6-8.3,10.2-12,1.5-1.5,3.5-2.6,4.9-2.6s.5,0,.8,0c.8.3,1.4.6,1.8,1.4h0c2.3,4.3-3.5,17.7-10.2,28.9-4.4,7.2-9.5,14.3-15.9,21.8-5.2,6.1-11,12.3-18.6,19.6-3.2,3.2-6.4,6.3-9.8,9.4-.9.8-1.9,1.7-3.1,2.6-.4.4-.9.6-1.4,1h0v.3ZM173.9,128.9c5.5-5.8,11.7-8.9,18.7-11.4-4.6,6.3-10.7,9.3-18.7,11.4ZM27.9,277.3c3.4-15.1,8-27.9,13-41.5,1.8,15.2-2.8,30.3-13,41.5ZM43.8,196.7c-2.2,9.5-3.4,13.4-5.3,13.4s-4.3-1.4-8.1-3.9l13.4-9.5h0Z"/>
      <path class="cls-1" d="M515,73c-1.4,2.1-1.8,4.8-.9,8.3,1.2,4.5,3.9,6.8,8.1,6.8s.8,0,1.2,0c9.3-.9,10.8-6.1,10.6-10.2v-.4c-1.7-5.7-5.3-8.4-10.7-8-4,.3-6.7,1.4-8.3,3.6h0Z"/>
      <path class="cls-1" d="M559.9,149.8c.3-.3.8-.5,1.2-.9,2.1-1.4,4.9-3.5,4.9-6.4s-.8-3.1-1.4-3.7c-2.8-2.3-8.3,1.3-25.4,16.3-2.1,1.8-3.7,3.2-4.4,3.7-11.6,8.5-21.9,13.5-32.6,16.3l-1.3.3c-5.5,1.4-12,3-16.8-1.9-3.4-3.5-2.2-6.6.1-11.4.5-1,1-2.1,1.4-3,7.5-18.2,17.9-34.7,28-50.8l.5-.8c.1-.3.4-.6.6-.9,1.4-1.9,4.4-6.1-1-10.3s-8.9-.3-10.6,1.7l-.5.6c-15.7,17.3-26.8,37.4-32.8,59.6-2.5,9.3-.5,16.6,6.1,22.4,4.6,4,9.3,5.3,13.8,5.3s6.3-.6,9.3-1.4c14.6-3.6,28.6-10.3,43.1-20.5,5.4-3.9,11-8.3,17.9-14.1h-.1Z"/>
      <path class="cls-1" d="M271.2,327.4s-1,.5-4.8.5h-4.1v6.8h50.4l3-26.8-6.2-.3-1,7.5c-.1,1.3-.6,3-1.3,4.9-.6,1.8-1.4,3.2-2.5,4.1s-2.5,1.8-4.4,2.6-4.3,1.2-7.1,1.2h-7.4c-1.3,0-1.9,0-2.3-.1v-50.7c.1,0,.4-.3.9-.4.8-.3,2.3-.5,5.4-.5h5v-7h-2.2c-2.1.4-7.1.4-14.8.4s-11.4,0-13.4-.3h-2.2c0-.1,0,6.8,0,6.8h4.1c3.9,0,4.8.4,4.8.4,0,0,.3.4.3,1.8v47.2c0,1.4-.3,1.8-.3,1.8h0Z"/>
      <path class="cls-1" d="M372.2,267.5c-8.6,0-16.3,3.5-22.4,10.2-6.2,6.7-9.3,15-9.3,24.6s3.1,17.7,9.4,24.4c6.2,6.6,13.8,9.9,22.3,9.9s16.3-3.4,22.6-10.1c6.2-6.6,9.3-14.8,9.3-24.2s-3.1-17.9-9.3-24.6c-6.2-6.8-13.8-10.2-22.6-10.2h0ZM355.6,315.2c-1.3-4-1.9-8.8-1.9-14.1s.6-9.8,1.9-13.7c1.3-3.7,3-6.6,4.9-8.4,2.1-1.9,4-3.2,6.1-4.1,1.9-.8,3.9-1.3,5.7-1.3s3,.3,4.5.8,3.2,1.3,4.9,2.6,3.2,2.8,4.5,4.8,2.5,4.5,3.4,7.9,1.3,7.1,1.3,11.4-.6,10.2-1.9,14.3c-1.3,4-2.8,7-4.8,9s-4,3.6-5.9,4.6c-3.9,1.9-8,1.9-11.9,0-2.1-1-4-2.6-5.9-4.6s-3.5-5.2-4.8-9h0Z"/>
      <path class="cls-1" d="M480.7,269.8c-.6,0-4.3,0-10.7-.3h-2.1v6.8h2.1c2.1,0,3.6.1,4.9.5.9.3,1.5.6,1.8,1,.5.9.6,1.3.6,1.4v32.8c0,5.5-1.5,9.8-4.6,13-3.1,3.2-6.6,4.8-10.6,4.8s-2.3-.3-3.6-.6c-1.2-.4-2.6-1.2-4.1-2.2-1.4-1-2.6-2.7-3.5-5-1-2.5-1.5-5.7-1.5-9.4v-34.1c0-1.3.3-1.8.3-1.8,0,0,1-.5,4.8-.5h4.1v-7h-2.2c-2.1.4-6.4.4-13,.4s-11.1,0-13-.3h-2.2c0-.1,0,6.8,0,6.8h4.1c3.9,0,4.8.4,4.8.4,0,0,.3.4.3,1.8v33.8c0,6.8,2.5,12.6,7.2,17.4,4.8,4.6,10.6,7.1,17.3,7.1s10.3-2.1,14.4-5.9c4-3.9,6.3-8.6,7.2-14.3.1-1.3.3-3.5.3-6.4v-28.6c0-1,0-1.7.1-1.9,0-.3.3-.6.8-1.5.3-.4.8-.6,1.7-.9,1.2-.4,2.8-.5,4.9-.5h2.1v-6.8h-2.1c-6.4.3-10.1.3-10.6.3h.1Z"/>
      <path class="cls-1" d="M568.3,269.8c-.6,0-4.1,0-10.4-.3h-2.1v6.8h2.1c1.9,0,3.5.1,4.8.5.9.3,1.4.6,1.7,1,.5.9.6,1.3.6,1.4v33.4l-28-41.1c-.6-.9-1.2-1.3-1.7-1.5-.5-.3-1.3-.4-2.5-.4h-17.3v6.8h4.6c1.2,0,2.6,0,4.3.1h.4v46.7c0,.9,0,1.4-.1,1.7,0,.1-.1.6-.6,1.4-.1.3-.5.6-1.7,1-1.2.4-2.7.5-4.8.5h-2.1v6.8h2.1c6.2-.3,9.7-.3,10.4-.3s4.1,0,10.4.3h2.1v-6.8h-2.1c-1.9,0-3.5-.1-4.6-.5-.9-.3-1.4-.6-1.7-1-.5-.8-.6-1.2-.6-1.4v-42l33.8,49.7c.6.9,1.7,1.9,3.1,1.9s2.7-1.2,3-1.7.3-1.4.3-2.7v-49.4c0-.9,0-1.4.1-1.7,0-.1.1-.6.6-1.4.3-.4.8-.6,1.7-.9,1.2-.4,2.7-.5,4.8-.5h2.1v-6.8h-2.1c-6.2.3-9.7.3-10.4.3h-.1Z"/>
      <path class="cls-1" d="M657,306.4c-7.5,0-12.4,0-14.4-.3h-2.2c0-.1,0,6.8,0,6.8h4.9c4.9,0,5.9.5,5.9.5,0,0,.4.5.4,1.8v5.7c0,1.9-.4,3.5-1.3,4.6-.9,1.3-2.1,2.1-3.5,2.6-1.7.6-3.1,1-4.1,1.2-2.7.5-4.8.4-7.4-.1-1.4-.3-3.4-1-5.5-2.2-2.1-1.2-4-2.6-5.7-4.4-1.5-1.8-3-4.5-4.3-8-1.2-3.6-1.8-7.9-1.8-12.6s.6-9.2,1.8-12.8c1.2-3.6,2.6-6.3,4.1-8,1.5-1.8,3.5-3.2,5.5-4.4,2.2-1.2,3.9-1.8,5.3-2.1,6.4-1.3,11.4.3,15.6,4.8,3.4,3.5,5.5,8.4,6.4,14.4.1,1,.4,1.5.6,1.9.5.8,1.4,1.3,2.6,1.3,1.8,0,2.6-.9,3-1.5.1-.4.3-1,.3-2.6v-21.3c0-1.4,0-1.9-.1-2.3-.3-.9-1-1.9-2.7-1.9s-2.2.6-3,1.9l-3.4,4.6c-.4-.4-.8-.6-1-.9-.8-.6-1.9-1.5-3.5-2.5-1.5-1-3.5-1.8-5.4-2.5-1.9-.5-4.1-.8-6.4-.8-8.9,0-16.8,3.4-23.3,10.1-6.6,6.7-9.8,15-9.8,24.5s3.2,17.8,9.8,24.5c6.4,6.7,14.4,10.1,23.6,10.1s7.4-.6,10.8-2.1c2.5-1,4.5-2.5,6.1-4.3.5.5,1,1,1.5,1.7,1.9,1.9,3.1,2.6,4.1,2.6s2.7-.5,2.7-4.1v-17.3c.3,0,1.3-.3,4.1-.3h2.1v-6.8h-2.1c-6.4.3-9.9.4-10.6.4h.1Z"/>
      <path class="cls-1" d="M746.8,307.5l-1.5,8.1c-.3,1.5-.8,3.1-1.3,4.8-.5,1.4-1.2,2.6-1.8,3.4-.8.9-1.8,1.7-3,2.3-1,.6-2.5,1.2-4.1,1.4-1.8.3-3.9.5-6.3.5h-12c-1.3,0-1.9,0-2.3-.1v-23.3h6.1c4.6,0,6.1,1,6.3,1.4.5.6,1.3,2.3,1.3,7v2.1h6.2v-27.7h-6.2v2.1c0,4.8-.8,6.4-1.3,7.1-.4.4-1.7,1.4-6.3,1.4h-6.1v-20.9c.4,0,1-.1,2.3-.1h11.5c3.2,0,5.8.3,7.7.8,1.8.5,3.1,1.3,4.1,2.6,1.2,1.3,1.9,2.8,2.3,4.4.5,1.8.9,4.5,1.4,7.7l.3,1.8h6.3l-3-24.1h-54.2v6.8h4.1c3.9,0,4.8.4,4.8.4,0,0,.3.4.3,1.8v46.9c0,1.4-.3,1.8-.3,1.8,0,0-1,.5-4.8.5h-4.1v6.8h55.3l4.4-26.7-6.2-.5h0v-.4Z"/>
    </g>
  </g>
</svg>