<?xml version="1.0" encoding="UTF-8"?>
<svg id="Capa_1" xmlns="http://www.w3.org/2000/svg" viewBox="0 0 731.02 565.52">
  <defs>
    <style>
      .cls-1 {
        fill: #cfb361;
      }
    </style>
  </defs>
  <path class="cls-1" d="M416.92,247.47c-2.88,3.25-5.84,6.2-8.51,8.84-7.02,6.96-15.5,14.68-27.25,18.23-1.98.62-3.72.82-4.96-.48-.85-.88-.64-1.7.03-3.26l.35-.84c.84-2.3,1.78-4.53,2.73-6.79l.14-.34c1.66-3.99,3.37-8.1,4.51-12.45,1.03-3.94.3-7.6-2.07-10.32-2.58-2.95-6.65-4.32-11.43-3.67-4.8.67-9.78,2.09-15.23,4.32-4.64,1.91-9.03,3.89-12.74,5.59-1.43.65-2.64,1.49-3.97,2.41-.98.68-1.98,1.39-3.04,1.94-.79.4-2.88,1.19-4.22,1.19-.25,0-.59-.03-.77-.19-.18-.16-.05-.63.09-1.01l6.77-17.52c.13-.34.34-.8.63-1.41,1.24-2.62,3.31-7.01,1.76-10.18-.49-1.02-1.3-1.8-2.41-2.35-.69-.35-1.33-.52-1.95-.52-1.98,0-3.02,1.68-3.7,2.77l-.34.56c-2.67,3.99-4.95,8.3-6.88,12.87-.81.61-1.57,1.3-2.28,2-.48.46-.95.91-1.43,1.32-3.02,2.57-5.9,4.78-8.82,6.76-6.68,4.55-13.16,7.66-19.84,9.53-4.28,1.19-7.87,2.09-11.86,2.09-2.37,0-4.63-.33-6.92-.99-2.65-.77-4.64-2-5.75-3.57-.81-1.15-1.08-2.47-.79-3.83l.28-1.32c1.27-6.09,2.39-11.34,9.89-12.47,12.4-1.87,20.77-5.91,26.36-12.72,1.92-2.33,5.12-6.23,1.23-11.57-2.9-4.01-7.15-5.59-12.3-4.27-15.74,4.19-26.47,12.55-32.07,24.9-.74.15-1.43.35-1.94.53l-5.44,1.78c-6.07,1.98-12.35,4.02-18.14,6.65-8.83,4-17.45,8.33-26.56,12.9l-2.95,1.48c-2.51,1.26-5.06,2.54-7.69,3.84,12.21-30.7,24.84-57.4,38.61-81.56l.63-1.13c4.92-8.65,10-17.6,17.43-24.39.29-.26.57-.57.97-1.01,1.31-1.46,2-1.93,3.44-.95,1.6,1.09,1.48,2.42,1.11,4.68-.07.42-.12.83-.16,1.26-.57,6.61-3.02,12.41-5.39,18.03l-.45,1.09c-2.07,4.92-4.15,10.2-6.35,16.13-.69,1.85-.51,4.45,2.1,6.19,1.52,1.03,3.35.4,4.63-.32,9.82-5.47,17.52-35.28,12.29-47.6-2.43-5.76-5.85-6.97-8.29-6.97-1.51,0-3.12.45-4.79,1.35-4.78,2.59-7.92,6.57-10.38,10.14-16.75,24.26-30.98,51.24-43.52,82.48-7.38,18.36-16.3,36.99-36.91,45.57-.55.21-.93.56-1.49,1.04-.28.25-.61.46-.95.69-1.25.82-3.32,2.2-2.18,4.96,1.25,3.04,3.57,3.13,5.8,3.22.43.02.86.04,1.3.1,4.22.57,6.8,1.65,8.11,3.42.78,1.03,1.64,2.91.2,7.19l-4.69,13.9c-3.77,11.16-7.54,22.32-11.32,33.84-.92,2.81-2.18,6.65,2.17,10.26,1.7,1.4,3.35,2.08,5.08,2.08,2.21,0,4.17-1.15,5.59-1.99,18.62-10.86,25.23-38.94,14.72-62.61l-.28-.59c-.22-.47-.69-1.46-.71-1.66,1.46-3.09,2.44-6.5,3.44-9.93,2-6.97,4.08-14.18,10.64-18.21,21.39-13.09,40.45-22,59.6-27.92-.19.78-.39,1.55-.56,2.36-1.16,5.67.15,10.97,3.69,14.92,3.69,4.12,9.44,6.43,16.2,6.51h.92c18.03,0,31.18-8.61,43.45-17.98-.59,2.05-1.17,4.12-1.62,6.26l-.17.74c-.56,2.4-1.25,5.37,2.15,8.33,1.55,1.35,3.08,2,4.66,2,1.78,0,3.28-.82,4.46-1.48l.69-.36c2.17-1.12,4.3-2.3,6.43-3.49l1.27-.71c5.62-3.15,11.45-6.42,17.82-8.62,4.88-1.69,9.98-2.93,14.91-4.14,1.83-.42,2.99-.15,3.96.84.91.93.71,1.46.15,2.59l-.32.65c-.6,1.46-1.39,2.8-2.36,4.41l-1.85,3.1c-2.76,4.59-5.61,9.33-5.64,15.71-.02,3.74,1.03,6.65,3.1,8.66,2,1.94,4.87,2.92,8.52,2.92h.34c3.54-.06,6.25-.69,8.53-1.99,11.29-6.38,20.92-13.54,29.16-21.53.37,2.67,1.44,4.96,3.19,6.66,2.22,2.16,5.34,3.26,9.28,3.29,9.09,0,15.41-4.4,21.52-8.64l.84-.58c5.54-3.83,10.98-8.14,15.76-11.94.13-.11.35-.31.63-.58l.24-.24c1.66-1.67,3.56-3.44,4.93-3.47.23.05.44.22.6.52.18.34-.34,1.29-.74,2.03-.21.39-.39.74-.49,1.03-5.64,17.16-12.01,40.18-11.11,66.19.12,3.66.5,7.6,2.42,11.52,1.13,2.32,3.12,3.7,5.32,3.7.7,0,1.4-.14,2.12-.43,1.94-.81,2.28-2.13,2.32-2.84.07-1.18-.54-2.41-1.89-3.92-2.97-3.29-2.98-6.72-2.99-10.06,0-.83,0-1.66-.04-2.45-1.46-27.86,7.87-52.35,15.37-72.04,1.58-4.13,4.1-7.73,7.71-11,16.32-14.74,28.66-27.4,38.88-39.82,9.23-11.23,17.71-22.59,20.12-38.15v-.05c.59-3.81,1.39-9.04-3.77-12.47-1.58-1.05-3.15-1.57-4.78-1.57-3.03,0-5.52,1.77-7.72,3.32-10.2,7.22-16.39,17.79-21.86,27.98-7.37,13.72-14.66,27.5-21.99,41.38l-7.82,14.77c-7.14-14-17.11-18.48-28.85-12.95-17.06,8.07-28.99,21.53-35.59,39.92h0ZM429.58,263.29c-3.1,0-5.13-.57-6.18-1.77-.62-.71-1.37-2.03-.6-5.4,1.95-8.53,7.24-14.8,12.95-21.01,6.31-6.83,13.32-13.79,23.32-17.18,1.75-.6,3.07-.87,4.27-.87,2.41,0,4.27,1.19,5.68,3.64.51.89,1.14,1.79,1.78,2.7l1.41-.69h0l-1.27.89h0c3.08,4.35,4.77,7.17.96,10.18-3.77,2.98-7.39,6.19-10.88,9.3-5.58,4.97-11.34,10.12-17.89,14.32-3.28,2.13-8.26,5.05-13.56,5.89h0ZM497.55,207.03l.24-.5c5.36-11.19,10.92-22.75,17.37-33.58,4.1-6.89,8.21-12.89,12.56-18.35l1.71-2.17c2.48-3.15,5.06-6.41,7.9-9.25,1.22-1.22,2.66-1.97,3.8-1.97.22,0,.43.03.63.1.61.18,1.08.55,1.38,1.09h0c1.84,3.34-2.65,13.66-7.93,22.4-3.36,5.59-7.38,11.12-12.27,16.89-3.97,4.68-8.54,9.51-14.36,15.24-2.51,2.46-5.05,4.9-7.6,7.31-.67.63-1.5,1.27-2.39,1.96-.34.27-.7.55-1.05.82h0ZM282.02,224.86c4.35-4.49,9.06-6.95,14.52-8.84-3.64,4.86-8.28,7.16-14.52,8.84ZM168.79,339.78c2.61-11.69,6.24-21.61,10.14-32.15,1.45,11.81-2.22,23.47-10.14,32.15ZM181.22,277.34c-1.69,7.36-2.56,10.38-4.14,10.38-1.25,0-3.26-1.15-6.29-3l10.43-7.4h0Z"/>
  <path class="cls-1" d="M546.52,181.4c-1.15,1.57-1.4,3.74-.73,6.41.85,3.46,3.03,5.27,6.32,5.27.3,0,.6-.02.93-.05,7.19-.71,8.44-4.68,8.22-7.88l-.06-.32c-1.25-4.41-3.99-6.47-8.23-6.23-3.12.21-5.23,1.12-6.45,2.8h0Z"/>
  <path class="cls-1" d="M581.33,241c.24-.2.57-.43.93-.68,1.61-1.12,3.81-2.66,3.79-4.95,0-1.59-.61-2.43-1.15-2.87-2.17-1.75-6.43.96-19.74,12.55-1.63,1.42-2.86,2.5-3.38,2.87-8.98,6.55-17.02,10.54-25.33,12.55l-.98.24c-4.34,1.08-9.26,2.32-13.02-1.46-2.64-2.65-1.72-5.1.12-8.79.39-.79.78-1.55,1.07-2.3,5.77-14.06,13.87-26.94,21.71-39.39l.37-.6c.14-.23.32-.47.5-.72,1.1-1.54,3.38-4.74-.76-8.04-4.18-3.34-6.87-.23-8.16,1.26l-.44.5c-12.23,13.41-20.79,28.96-25.43,46.23-1.94,7.21-.42,12.89,4.67,17.37,3.59,3.14,7.22,4.12,10.69,4.12,2.49,0,4.91-.5,7.17-1.07,11.29-2.83,22.21-8.04,33.41-15.91,4.24-3,8.55-6.36,13.94-10.91h.02Z"/>
  <path class="cls-1" d="M357.48,378.69c-.09.05-.79.35-3.75.35h-3.22v5.28h39.14l2.26-20.84-4.79-.25-.82,5.83c-.14.98-.49,2.25-1.04,3.77-.52,1.43-1.15,2.51-1.88,3.22-.76.74-1.91,1.42-3.41,2.04s-3.34.93-5.48.93h-5.7c-.98,0-1.5-.07-1.75-.12-.04-.18-.09-.52-.09-1.1v-37.01c0-.62.04-.98.07-1.16.12-.06.34-.15.73-.26.57-.16,1.77-.35,4.23-.35h3.86v-5.41l-1.68.13c-1.63.13-5.51.2-11.54.2-5.34,0-8.84-.07-10.41-.2l-1.69-.14v5.41h3.22c3,0,3.67.32,3.7.33,0,0,.24.28.24,1.37v36.57c0,1.07-.21,1.38-.2,1.38v.03Z"/>
  <path class="cls-1" d="M435.78,332.23c-6.73,0-12.59,2.66-17.41,7.92-4.78,5.22-7.2,11.65-7.2,19.1s2.44,13.75,7.28,18.85c4.85,5.13,10.68,7.73,17.34,7.73s12.62-2.62,17.46-7.77c4.8-5.13,7.23-11.46,7.23-18.82s-2.42-13.85-7.2-19.08c-4.82-5.27-10.7-7.94-17.47-7.94h-.02ZM422.89,369.21c-.97-3.12-1.46-6.81-1.46-10.94s.52-7.63,1.54-10.59c1-2.87,2.27-5.06,3.77-6.48,1.57-1.47,3.14-2.54,4.66-3.19,1.48-.64,2.96-.96,4.38-.96,1.13,0,2.32.19,3.54.56,1.19.36,2.45,1.04,3.77,2.02,1.3.97,2.49,2.23,3.53,3.75,1.03,1.49,1.89,3.54,2.57,6.09.69,2.58,1.03,5.54,1.03,8.79,0,4.2-.5,7.91-1.48,11.06-.97,3.07-2.2,5.43-3.69,7.01-1.51,1.62-3.07,2.83-4.62,3.56-3.05,1.48-6.2,1.46-9.24-.03-1.57-.77-3.13-1.98-4.64-3.62-1.48-1.61-2.7-3.98-3.65-7.03h0Z"/>
  <path class="cls-1" d="M519.85,333.97c-.52,0-3.3-.07-8.33-.2l-1.6-.04v5.32h1.55c1.56,0,2.84.14,3.78.41.7.2,1.19.48,1.38.77.43.67.52.98.55,1.08.05.19.1.57.1,1.3v24.09c0,4.3-1.18,7.62-3.59,10.15-2.4,2.5-5.07,3.72-8.18,3.72-.9,0-1.83-.15-2.77-.45-.95-.31-2.03-.88-3.22-1.73-1.08-.78-2.01-2.1-2.75-3.95-.79-1.94-1.18-4.38-1.18-7.26v-26.43c0-1.04.21-1.35.19-1.35.09-.05.79-.35,3.75-.35h3.22v-5.41l-1.69.14c-1.57.13-4.96.2-10.08.2s-8.57-.07-10.15-.2l-1.69-.14v5.41h3.22c3,0,3.67.32,3.7.34,0,0,.24.28.24,1.37v26.16c0,5.28,1.9,9.81,5.64,13.46,3.73,3.64,8.25,5.48,13.41,5.48,4.28,0,8.04-1.55,11.15-4.63,3.06-3.01,4.93-6.74,5.59-11.1.14-1.02.22-2.65.22-5.01v-22.24c0-.81.07-1.26.12-1.51.04-.16.15-.54.57-1.21.17-.29.64-.55,1.31-.73.95-.26,2.23-.39,3.81-.39h1.55v-5.32l-1.6.04c-5.04.13-7.79.2-8.24.2v.02Z"/>
  <path class="cls-1" d="M587.74,333.97c-.55,0-3.25-.07-8.08-.2l-1.6-.05v5.32h1.55c1.51,0,2.75.13,3.66.41.67.2,1.13.47,1.31.76.41.66.51.97.54,1.08.05.19.1.57.1,1.31v24.62l-21.72-31.91c-.49-.66-.88-1.03-1.3-1.25-.43-.21-.99-.3-1.94-.3h-13.35v5.28h3.55c.9,0,2.02.05,3.29.12.12,0,.23.03.32.04h0v36.24c0,.72-.06,1.11-.11,1.3-.03.12-.14.47-.55,1.11-.11.16-.41.48-1.3.76-.92.28-2.15.42-3.65.42h-1.55v5.32l1.6-.05c4.84-.14,7.53-.2,8.08-.2s3.25.07,8.08.2l1.6.05v-5.32h-1.55c-1.5,0-2.73-.14-3.64-.42-.68-.21-1.15-.49-1.34-.78-.4-.63-.5-.95-.52-1.05-.05-.2-.1-.6-.1-1.35v-31.2l26.25,38.54c.51.66,1.3,1.54,2.42,1.54,1.58,0,2.11-.94,2.26-1.32.17-.44.25-1.05.25-2.05v-38.34c0-.69.06-1.07.11-1.28.03-.13.14-.47.55-1.12.17-.29.63-.55,1.28-.75.91-.27,2.15-.41,3.66-.41h1.55v-5.32l-1.6.05c-4.84.13-7.53.2-8.08.2h-.03Z"/>
  <path class="cls-1" d="M656.62,362.46c-5.81,0-9.58-.07-11.22-.2l-1.68-.13v5.41h3.76c3.77,0,4.56.36,4.63.4.08.05.29.4.29,1.39v4.43c0,1.48-.34,2.66-1.03,3.62-.7.97-1.58,1.64-2.68,2.03-1.3.48-2.39.8-3.23.94-2.06.38-3.68.27-5.67-.13-1.15-.23-2.58-.8-4.25-1.7-1.65-.87-3.12-2.03-4.4-3.45-1.24-1.38-2.34-3.48-3.26-6.24-.94-2.82-1.42-6.11-1.42-9.81s.48-7.07,1.42-9.87c.92-2.76,2.01-4.86,3.24-6.25,1.24-1.4,2.69-2.55,4.31-3.4,1.66-.87,3.05-1.43,4.13-1.65,4.95-1.02,8.81.18,12.12,3.65,2.6,2.73,4.27,6.49,4.98,11.19.14.76.27,1.18.46,1.5.38.63,1.06.96,2.03.96,1.45,0,2.04-.66,2.28-1.22.14-.34.24-.81.24-1.99v-16.49c0-1.08-.07-1.48-.14-1.75-.19-.71-.84-1.46-2.07-1.46-.87,0-1.67.52-2.32,1.51l-2.56,3.64c-.3-.27-.57-.52-.83-.73-.61-.52-1.51-1.16-2.68-1.94-1.25-.82-2.66-1.45-4.22-1.87-1.52-.4-3.19-.61-4.95-.61-6.92,0-12.99,2.62-18.07,7.79-5.07,5.16-7.64,11.55-7.64,18.99s2.55,13.83,7.58,19.01c5.04,5.19,11.18,7.83,18.26,7.83,2.94,0,5.75-.55,8.36-1.62,1.94-.8,3.53-1.89,4.74-3.26.35.4.76.82,1.22,1.26,1.52,1.48,2.38,1.99,3.23,1.99.78,0,2.08-.41,2.08-3.15v-12.05c0-.81.1-1.19.07-1.26.24-.07,1.03-.23,3.17-.23h1.55v-5.32l-1.6.05c-4.99.14-7.74.21-8.25.21l.03-.04Z"/>
  <path class="cls-1" d="M726.22,363.2l-1.21,6.27c-.23,1.18-.57,2.41-1.03,3.66-.41,1.13-.9,2.01-1.44,2.6-.6.65-1.36,1.26-2.25,1.82-.84.54-1.91.91-3.15,1.14-1.37.24-3.02.36-4.91.36h-9.26c-.99,0-1.5-.07-1.75-.12-.04-.18-.09-.52-.09-1.1v-16.97h4.68c3.64,0,4.66.78,4.92,1.11.38.47,1.02,1.81,1.02,5.44v1.55h4.84v-21.49h-4.84v1.55c0,3.68-.63,5-1.01,5.46-.27.33-1.28,1.09-4.93,1.09h-4.68v-15.1c0-.57.05-.92.09-1.11.26-.05.79-.12,1.75-.12h8.95c2.5,0,4.52.21,6.01.63,1.35.38,2.4,1.03,3.21,1.97.85,1,1.47,2.16,1.82,3.45.39,1.44.75,3.47,1.05,6.04l.16,1.37h4.88l-2.33-18.74h-42.03v5.28h3.22c3,0,3.67.32,3.7.34,0,0,.24.28.24,1.37v36.37c0,1.07-.21,1.38-.2,1.38-.09.05-.79.35-3.75.35h-3.22v5.28h42.95l3.38-20.73-4.79-.38h0Z"/>
  <path class="cls-1" d="M514.18,418.71l-.71-.4-.68,1.71c-.7.65-1.42,1.28-2.15,1.93-2.09,1.82-4.23,3.7-5.77,6.05h0c-39.3,60.6-93.64,100.4-161.52,118.3-22.33,5.89-46.67,7.42-74.4,4.71l-8.8-.85c-10.41-1-21.17-2.03-31.7-3.34-.42-.07-2.08-.57-4.5-1.35.09-.02.16,0,.25-.05l3.08-1.15-12.99-7.52,7.95,8.12s.05.04.07.06c-6.07-1.98-15.59-5.2-24.13-8.13l8.33-.4-6.18-2.65c-3.79-1.63-7.61-3.24-11.41-4.86-9.12-3.86-18.56-7.87-27.7-12.05-3.17-1.46-6.23-3.4-9.2-5.28-2.08-1.32-4.23-2.69-6.45-3.91-30.76-16.91-73.1-71.59-73.5-72.11-7.95-10.86-15.03-22.96-21.03-35.95-9.13-19.75-19.11-43.43-23.98-69.18-3.25-24.27-1.88-48.78-.33-67.43,1.19-14.26,3.69-28.04,7.42-40.94.21-.66,21.51-66.56,44.64-93.04,1.66-1.91,3.22-3.93,4.72-5.89,2.14-2.78,4.34-5.66,6.81-8.1,7.17-7.08,14.67-14.07,21.92-20.85,3.02-2.81,6.03-5.62,9.02-8.45l4.91-4.62-7.96,2.48c7.09-5.74,14.88-11.99,19.88-15.91l-4.94,10.63,7.75-9.19-.15-.12.13.07.13-.32-1.17-.51-.26-1.67-.11.03c2-1.55,3.37-2.59,3.75-2.8,9.48-4.87,19.29-9.54,28.76-14.06l7.87-3.77c25.12-12.06,48.5-18.96,71.5-21.09,69.91-6.46,134.59,12.3,192.28,55.76,2.24,1.69,4.9,2.71,7.46,3.7.87.34,1.73.68,2.59,1.03l1.34,1.42.53-.62,5.07,2.19-3.58-3.93.61-.73-2.06-.87c-.44-.49-.86-.98-1.29-1.48-1.37-1.6-2.8-3.26-4.56-4.53-3.32-2.4-6.62-4.83-9.93-7.25-22.53-16.55-45.83-33.67-74.29-41.07-5.36-1.39-10.81-2.97-16.08-4.49-13.45-3.89-27.35-7.91-41.35-9.36-26.26-2.72-51.8-1.98-76.54,2.07,2.17-.81,4.35-1.63,6.51-2.47l7.49-2.87-3.55-1.5c-2.75-1.16-5.28-1.36-7.52-.58-3.75,1.29-7.5,2.56-11.27,3.83-10.95,3.69-22.27,7.49-33.1,12.07-4.51,1.91-8.9,4.16-13.21,6.51-15.5,6.05-30.61,13.51-45.28,22.48-17.38,10.63-33.2,23-47.61,37.18l.24-.34-3.79.72c-2.93.56-5.15,1.79-6.58,3.68-2.4,3.16-4.84,6.3-7.27,9.45-7.07,9.13-14.38,18.58-20.85,28.37-4.59,6.95-8.37,14.53-12.03,21.86-1.65,3.3-3.29,6.58-5,9.82l-2.17,6.45c-6.34,12.55-11.53,26.5-15.85,42.59l-.5-.13-.42,1.48C2.95,239.31-.33,264.51.03,290.18c.21,15.75,1.67,30.91,4.32,45.04.49,2.62,1.02,5.23,1.54,7.8,2.39,13.11,5.99,26.61,10.72,40.15l.3.81c2.91,8.4,6.22,16.5,9.82,24.04,6.95,14.92,15.26,29.1,24.71,42.15l1.03.99c9.85,14.04,19.74,25.62,30.24,35.32,42.24,39.11,87.42,63.09,138.14,73.33,18.91,3.81,37.7,5.72,56.31,5.72,42.05,0,83.24-9.72,123-29.09,12.67-6.16,24.35-14.72,35.66-22.99,4.42-3.24,9-6.58,13.54-9.72,24.19-16.7,40.21-40.77,55.7-64.05,2.27-3.41,4.54-6.82,6.84-10.21,1.22-1.8,1.98-3.84,2.73-5.81.23-.61.46-1.22.71-1.82l1.65-1.54-.82-.47,2.02-4.91-4,3.78.02.02ZM223.66,542.4c.3,0,.59.09.79.28l-.93.91-.41-1.09c.16-.06.35-.1.55-.1h0Z"/>
  <polygon class="cls-1" points="175.96 28.89 173.34 24.58 139.37 40.66 141.36 44.83 175.96 28.89"/>
  <path class="cls-1" d="M116.88,59.46c-7.38.11-12.15,3.88-14.18,11.19l-1.27,4.59,20.03-15.86-4.59.08h0Z"/>
  <polygon class="cls-1" points="356.54 5.44 319.35 0 318.69 4.56 356.33 10.48 356.54 5.44"/>
  <path class="cls-1" d="M290.2,3.18c-6.21-3.99-12.27-3.5-18,1.46l-3.6,3.11,25.46-2.1-3.85-2.48h0Z"/>
</svg>